#!OML:ASF F:\VICON\USERDATA\INSTALL\rory3\rory3.ASF
:FULLY-SPECIFIED
:DEGREES
262
root 1.46175 15.7129 -1.88609 -188.394 49.8898 -190.234
lowerback 8.4859 -0.909748 -8.17063
upperback -0.697143 -2.07288 -1.93007
thorax -5.29027 -0.779402 2.82434
lowerneck -11.7286 -7.90177 -11.5863
upperneck 20.5882 -10.2006 8.80802
head 9.49167 -4.66203 3.7225
rclavicle 1.62407e-013 2.24627e-014
rhumerus -38.8956 -6.61769 -83.7712
rradius 26.5676
rwrist 12.5219
rhand -17.1449 13.9184
rfingers 7.12502
rthumb 9.0955 -15.8655
lclavicle 1.62407e-013 2.24627e-014
lhumerus -27.463 -0.798327 85.8144
lradius 35.3382
lwrist 5.73783
lhand -13.1868 12.6958
lfingers 7.12502
lthumb 12.9131 42.2763
rfemur -30.8709 9.2398 11.9968
rtibia 24.7589
rfoot -14.0074 -20.2272
rtoes -3.98863
lfemur 19.631 -5.90814 -34.3381
ltibia -1.90833e-014
lfoot -7.5071 8.56087
ltoes -9.17931
263
root 1.5958 15.7001 -1.96986 -188.714 49.6913 -190.575
lowerback 8.31913 -0.957782 -8.40294
upperback -0.69883 -2.14122 -1.97466
thorax -5.18438 -0.809703 2.91015
lowerneck -11.7458 -7.89559 -11.6109
upperneck 20.6444 -10.1778 8.7686
head 9.51126 -4.6558 3.71594
rclavicle -5.31438e-014 1.90833e-014
rhumerus -39.1679 -6.61237 -83.7029
rradius 26.5225
rwrist 12.5828
rhand -17.1563 13.8274
rfingers 7.12502
rthumb 9.08457 -15.957
lclavicle -5.31438e-014 1.90833e-014
lhumerus -27.6653 -0.38885 85.7379
lradius 34.9492
lwrist 5.48031
lhand -13.1327 12.7712
lfingers 7.12502
lthumb 12.9653 42.3484
rfemur -30.5678 9.0521 11.9024
rtibia 24.9919
rfoot -13.9672 -20.024
rtoes -3.73258
lfemur 20.3067 -5.76166 -34.5058
ltibia 5.40694e-014
lfoot -7.32543 8.33036
ltoes -10.3482
264
root 1.72903 15.6894 -2.04544 -188.521 49.4948 -190.333
lowerback 8.22905 -1.00647 -8.28303
upperback -0.74776 -2.18887 -1.93043
thorax -5.18216 -0.83641 2.89369
lowerneck -11.662 -7.90198 -11.6327
upperneck 20.5638 -10.1908 8.78439
head 9.47108 -4.66524 3.72492
rclavicle 5.36377e-014 9.74045e-015
rhumerus -39.4797 -6.898 -83.5119
rradius 26.3773
rwrist 12.7994
rhand -17.0381 14.3351
rfingers 7.12502
rthumb 9.19857 -15.4442
lclavicle 5.36377e-014 9.74045e-015
lhumerus -27.8522 -0.172484 85.6459
lradius 34.4697
lwrist 5.17413
lhand -12.9983 12.7794
lfingers 7.12502
lthumb 13.0948 42.3482
rfemur -30.4043 8.98317 12.2042
rtibia 25.5756
rfoot -13.7874 -20.0152
rtoes -4.07559
lfemur 20.9112 -5.70239 -34.2329
ltibia 2.54444e-014
lfoot -7.06464 8.09817
ltoes -11.3929
265
root 1.86333 15.6719 -2.11878 -188.987 49.2143 -190.912
lowerback 8.19359 -1.00099 -8.7182
upperback -0.783308 -2.22101 -2.07265
thorax -5.18743 -0.836344 2.9888
lowerneck -11.5882 -7.96887 -11.6335
upperneck 20.4609 -10.3108 8.88279
head 9.44074 -4.71433 3.74375
rclavicle 1.05586e-013 2.74323e-014
rhumerus -39.7655 -7.25854 -83.3625
rradius 26.167
rwrist 12.6939
rhand -16.7934 15.7385
rfingers 7.12502
rthumb 9.43465 -14.0304
lclavicle 1.05586e-013 2.74323e-014
lhumerus -28.0054 0.149864 85.4383
lradius 33.8561
lwrist 4.79487
lhand -12.6472 12.3904
lfingers 7.12502
lthumb 13.4333 41.9373
rfemur -30.2069 8.99844 11.9089
rtibia 26.2629
rfoot -13.5625 -20.2083
rtoes -4.79851
lfemur 21.5182 -5.63417 -34.5155
ltibia -2.22639e-014
lfoot -6.71218 7.8235
ltoes -11.3539
266
root 2.00069 15.6531 -2.19494 -189.639 48.9888 -191.703
lowerback 8.10377 -0.972622 -9.28596
upperback -0.797445 -2.22546 -2.24321
thorax -5.13894 -0.820608 3.12195
lowerneck -11.6203 -8.05036 -11.6117
upperneck 20.4657 -10.4271 8.87766
head 9.46031 -4.76636 3.7207
rclavicle 8.26851e-014 1.98785e-015
rhumerus -39.9936 -7.41723 -83.3107
rradius 25.9596
rwrist 12.441
rhand -16.8695 16.0997
rfingers 7.12502
rthumb 9.36122 -13.6724
lclavicle 8.26851e-014 1.98785e-015
lhumerus -28.207 0.576669 85.2144
lradius 33.2056
lwrist 4.59853
lhand -12.3481 11.959
lfingers 7.12502
lthumb 13.7215 41.4866
rfemur -29.9158 9.03971 11.5276
rtibia 26.9134
rfoot -13.137 -20.5792
rtoes -5.39909
lfemur 22.1409 -5.48089 -34.9307
ltibia 6.04305e-014
lfoot -6.14924 7.50274
ltoes -11.3058
267
root 2.14033 15.6481 -2.27148 -189.157 49.1113 -191.089
lowerback 7.9155 -0.965708 -8.89357
upperback -0.880288 -2.16642 -2.11033
thorax -5.13474 -0.803906 3.03342
lowerneck -11.516 -8.04776 -11.6848
upperneck 20.4161 -10.417 8.88265
head 9.42719 -4.77014 3.73852
rclavicle 5.48335e-014 1.07344e-014
rhumerus -40.307 -7.44915 -83.2229
rradius 25.8639
rwrist 12.5083
rhand -16.9886 15.5505
rfingers 7.12502
rthumb 9.24633 -14.2267
lclavicle 5.48335e-014 1.07344e-014
lhumerus -28.5897 0.986683 85.0879
lradius 32.7079
lwrist 4.43886
lhand -12.3139 12.1924
lfingers 7.12502
lthumb 13.7545 41.7178
rfemur -29.7256 9.24856 12.2493
rtibia 27.5985
rfoot -12.3321 -21.2026
rtoes -5.24251
lfemur 22.7058 -5.18442 -34.2866
ltibia 2.8625e-014
lfoot -5.55351 7.23959
ltoes -11.1768
268
root 2.2837 15.6534 -2.35053 -188.62 49.1744 -190.311
lowerback 7.76722 -1.04629 -8.42188
upperback -0.913458 -2.21781 -1.9337
thorax -5.08829 -0.846992 2.95939
lowerneck -11.4651 -7.95328 -11.7363
upperneck 20.327 -10.2839 8.91785
head 9.37614 -4.71176 3.77895
rclavicle -4.87737e-014 4.57205e-015
rhumerus -40.4923 -7.45049 -83.1327
rradius 25.7357
rwrist 12.8099
rhand -16.7494 15.8923
rfingers 7.12502
rthumb 9.47719 -13.8746
lclavicle -4.87737e-014 4.57205e-015
lhumerus -28.9706 1.44625 84.9246
lradius 32.3391
lwrist 4.14888
lhand -12.3864 12.9602
lfingers 7.12502
lthumb 13.6846 42.4902
rfemur -29.5011 9.29142 13.0857
rtibia 28.2388
rfoot -11.1671 -21.8799
rtoes -4.54708
lfemur 23.3689 -4.95074 -33.5268
ltibia 4.77083e-014
lfoot -5.03974 6.98448
ltoes -9.444
269
root 2.42538 15.6573 -2.43149 -188.633 48.9995 -190.212
lowerback 7.67144 -1.15434 -8.39871
upperback -0.924835 -2.34983 -1.89602
thorax -5.03045 -0.915153 2.99789
lowerneck -11.4028 -7.88345 -11.7027
upperneck 20.2187 -10.1776 8.83608
head 9.30791 -4.67195 3.76072
rclavicle -4.77378e-014 1.68967e-014
rhumerus -40.6476 -7.48751 -83.0281
rradius 25.5794
rwrist 13.089
rhand -16.4325 16.3149
rfingers 7.12502
rthumb 9.78285 -13.4379
lclavicle -4.77378e-014 1.68967e-014
lhumerus -29.3062 1.91808 84.7495
lradius 31.8227
lwrist 3.85336
lhand -12.6091 13.4987
lfingers 7.12502
lthumb 13.47 43.0432
rfemur -29.2938 9.26682 13.2691
rtibia 28.8199
rfoot -10.2416 -22.3137
rtoes -3.62841
lfemur 24.0583 -4.85625 -33.3016
ltibia -3.18055e-014
lfoot -4.33066 6.73285
ltoes -9.62881
270
root 2.56278 15.6586 -2.50958 -188.52 48.9114 -190.007
lowerback 7.66125 -1.16743 -8.26539
upperback -1.01626 -2.36113 -1.84357
thorax -5.12281 -0.9195 2.98114
lowerneck -11.3705 -7.90196 -11.7244
upperneck 20.223 -10.1822 8.7445
head 9.30034 -4.68577 3.73248
rclavicle 4.56156e-014 1.63003e-014
rhumerus -40.9144 -7.72492 -82.7862
rradius 25.3656
rwrist 13.3296
rhand -16.3379 16.2712
rfingers 7.12502
rthumb 9.87413 -13.4773
lclavicle 4.56156e-014 1.63003e-014
lhumerus -29.6755 2.38089 84.5708
lradius 30.9486
lwrist 3.31255
lhand -12.9747 13.2697
lfingers 7.12502
lthumb 13.1176 42.8372
rfemur -29.1638 9.36645 13.4767
rtibia 29.4347
rfoot -9.68735 -22.4072
rtoes -2.59938
lfemur 24.668 -4.70312 -32.9826
ltibia -6.04305e-014
lfoot -3.33376 6.5048
ltoes -13.852
271
root 2.70028 15.6624 -2.58738 -188.231 48.935 -189.58
lowerback 7.63928 -1.15543 -7.99526
upperback -1.11869 -2.32578 -1.73664
thorax -5.22772 -0.904996 2.94021
lowerneck -11.3664 -7.92398 -11.8047
upperneck 20.3028 -10.1925 8.71405
head 9.33178 -4.69816 3.73421
rclavicle 4.44971e-014 -7.05686e-015
rhumerus -41.1622 -8.06536 -82.4728
rradius 25.0712
rwrist 13.7667
rhand -16.5291 16.2008
rfingers 7.12502
rthumb 9.68969 -13.5564
lclavicle 4.44971e-014 -7.05686e-015
lhumerus -30.0383 3.10929 84.2587
lradius 29.942
lwrist 2.4327
lhand -12.9461 12.7579
lfingers 7.12502
lthumb 13.1452 42.3235
rfemur -28.9071 9.25335 13.9831
rtibia 29.97
rfoot -8.69877 -22.0745
rtoes -2.65774
lfemur 25.2366 -4.47529 -32.472
ltibia -6.36111e-015
lfoot -2.21869 6.37281
ltoes -16.3344
272
root 2.83821 15.6697 -2.66665 -187.737 48.9922 -188.855
lowerback 7.56418 -1.22717 -7.49613
upperback -1.19033 -2.37335 -1.58285
thorax -5.26678 -0.942625 2.82799
lowerneck -11.421 -7.85297 -11.8204
upperneck 20.4634 -10.07 8.63249
head 9.38022 -4.64616 3.72549
rclavicle -1.69064e-014 1.40143e-014
rhumerus -41.28 -8.02171 -82.3916
rradius 24.7053
rwrist 13.9409
rhand -16.7953 15.9262
rfingers 7.12502
rthumb 9.43288 -13.8427
lclavicle -1.69064e-014 1.40143e-014
lhumerus -30.4193 4.06958 83.8596
lradius 28.9901
lwrist 1.52793
lhand -12.9619 12.5742
lfingers 7.12502
lthumb 13.1299 42.1409
rfemur -28.4428 8.9793 14.7901
rtibia 30.29
rfoot -7.38511 -21.5018
rtoes -2.61708
lfemur 22.0348 -4.19058 -31.7231
ltibia 7.28053
lfoot -4.42833 5.56563
ltoes -15.7772
273
root 2.97456 15.6801 -2.74243 -186.749 49.1238 -187.635
lowerback 7.37521 -1.26354 -6.64911
upperback -1.26888 -2.33228 -1.3583
thorax -5.26656 -0.949599 2.58223
lowerneck -11.5883 -7.8147 -11.697
upperneck 20.6703 -9.98373 8.41961
head 9.45511 -4.61068 3.63998
rclavicle -1.54718e-014 -2.01766e-014
rhumerus -41.3865 -8.11991 -82.2759
rradius 24.3806
rwrist 14.0768
rhand -16.9463 15.1434
rfingers 7.12502
rthumb 9.28719 -14.632
lclavicle -1.54718e-014 -2.01766e-014
lhumerus -30.81 4.93444 83.4605
lradius 28.0637
lwrist 0.694749
lhand -13.1804 12.3471
lfingers 7.12502
lthumb 12.9193 41.9272
rfemur -28.0324 8.79012 15.9315
rtibia 30.4141
rfoot -6.47421 -20.9766
rtoes -0.22055
lfemur 20.2809 -3.91407 -30.6071
ltibia 11.4542
lfoot -4.94543 5.21332
ltoes -15.9469
274
root 3.11068 15.696 -2.8167 -185.699 49.1945 -186.367
lowerback 7.17868 -1.16283 -5.7396
upperback -1.32524 -2.10491 -1.23077
thorax -5.2587 -0.867173 2.17824
lowerneck -11.7762 -7.93171 -11.3037
upperneck 20.8874 -10.1524 8.12876
head 9.54595 -4.67907 3.44667
rclavicle 7.96575e-014 -6.95746e-015
rhumerus -41.5284 -8.79353 -82.0229
rradius 24.0769
rwrist 14.451
rhand -16.9561 14.3223
rfingers 7.12502
rthumb 9.27772 -15.4536
lclavicle 7.96575e-014 -6.95746e-015
lhumerus -31.0053 5.38857 83.0124
lradius 27.0109
lwrist 0.0489285
lhand -13.1309 12.2644
lfingers 7.12502
lthumb 12.967 41.8415
rfemur -27.5888 8.70632 17.0457
rtibia 30.4074
rfoot -5.91295 -20.6105
rtoes 2.63617
lfemur 18.7393 -3.56004 -29.3683
ltibia 15.0118
lfoot -4.94498 4.93979
ltoes -15.857
275
root 3.24939 15.7136 -2.89133 -184.989 49.2646 -185.495
lowerback 7.00765 -0.957052 -5.13303
upperback -1.37498 -1.7689 -1.19783
thorax -5.25479 -0.721016 1.83316
lowerneck -11.7273 -8.11366 -10.8853
upperneck 20.9001 -10.4538 7.93219
head 9.5374 -4.80532 3.26962
rclavicle 7.94999e-014 1.31198e-014
rhumerus -41.6426 -9.70571 -81.6671
rradius 23.6782
rwrist 14.9313
rhand -16.8656 14.115
rfingers 7.12502
rthumb 9.36505 -15.657
lclavicle 7.94999e-014 1.31198e-014
lhumerus -31.0924 5.4411 82.703
lradius 25.9642
lwrist -0.486277
lhand -13.1951 12.6318
lfingers 7.12502
lthumb 12.9051 42.2128
rfemur -27.063 8.63879 17.8973
rtibia 30.4042
rfoot -5.52027 -20.2509
rtoes 4.86712
lfemur 17.4544 -3.20915 -28.4334
ltibia 18.0649
lfoot -4.51398 4.97483
ltoes -15.6893
276
root 3.38924 15.729 -2.96986 -184.421 49.4458 -184.78
lowerback 6.83369 -0.819882 -4.64853
upperback -1.46743 -1.53525 -1.08146
thorax -5.27658 -0.619566 1.65513
lowerneck -11.5951 -8.18645 -10.8888
upperneck 20.8998 -10.5586 7.90643
head 9.52263 -4.85863 3.25087
rclavicle -8.57569e-014 1.05356e-014
rhumerus -41.7541 -10.4226 -81.1709
rradius 23.1985
rwrist 15.5981
rhand -16.9434 14.326
rfingers 7.12502
rthumb 9.28998 -15.4493
lclavicle -8.57569e-014 1.05356e-014
lhumerus -31.3876 6.11653 82.2967
lradius 24.9098
lwrist -1.55742
lhand -13.3514 12.8619
lfingers 7.12502
lthumb 12.7544 42.4523
rfemur -26.5677 8.50557 18.7128
rtibia 30.5655
rfoot -5.21156 -19.847
rtoes 5.57266
lfemur 16.4652 -2.69718 -27.6182
ltibia 20.5593
lfoot -3.33361 5.16736
ltoes -16.3514
